<svg width="146" height="50" viewBox="0 0 146 50" xmlns="http://www.w3.org/2000/svg">
  <title>
    Cryptoid logo
  </title>
  <path d="M44.32 24.984c0 .912-.048 1.968-.432 2.352-1.056 1.056-11.712 7.296-22.56 7.296-10.896 0-20.4-4.752-20.4-14.832C.928 9.768 13.84.312 28.816.312 34.96.312 41.2 2.232 41.2 6.456c0 4.608-6.48 6.96-10.944 6.96-2.256 0-4.032-.288-4.032-.912 0-.528.432-1.296.96-1.536.384-.096 8.016.096 8.016-3.984 0-1.392-1.728-3.024-6.576-3.024-9.12 0-20.64 5.904-20.64 15.552 0 2.688 1.008 11.568 14.544 11.568 10.224 0 21.168-6.624 21.456-6.624.144 0 .336.048.336.528zm15.696.768c0 .528-.096 1.104-.288 1.488-.672 1.344-2.784 5.76-6.384 5.76-2.448 0-3.696-1.68-3.696-3.552 0-1.44 1.104-3.744 1.68-5.04.048-.144.096-.24.096-.336 0-.24-.24-.384-.528-.384-1.104-.048-2.832-.384-3.216-.576-.384 1.392-2.64 6.336-3.696 6.336-.432 0-.624-1.488-.624-1.92 0-.336 1.776-2.688 2.592-5.328-.288-.24-1.632-1.008-1.632-3.312 0-.912.624-2.448 1.824-2.448 1.536 0 2.256 1.344 2.256 3.216.768.528 3.408.672 4.608.672 1.92 0 2.928.816 2.928 2.352 0 1.488-2.208 5.472-2.208 6.672 0 .336.144.624.48.624 1.392 0 3.312-2.784 4.8-5.568.144-.288.24-.384.384-.384.336 0 .624.864.624 1.728zm16.944.288c0 .432-.096.864-.288 1.2-1.488 2.928-3.504 4.992-5.52 6.624-.048 3.168-.192 6.192-.384 8.304-.48 5.664-4.128 7.392-6.432 7.392-3.264 0-5.52-2.688-5.52-6.288 0-4.8 3.888-6.912 8.16-9.648l-.096-3.6C65.776 31.56 64.192 33 62.08 33c-3.312 0-4.848-3.456-4.848-8.016 0-1.104.192-5.088.384-5.472.288-.432.864-.624 1.92-.624 1.104 0 2.016.144 2.256.624.048.096.096.528.096 1.104 0 1.392-.144 3.888-.144 5.376 0 2.16.24 3.984 1.248 3.984 1.056 0 2.496-1.728 3.792-3.792v-1.056c0-3.6.048-5.232.288-5.616.288-.432.816-.624 1.92-.624 1.056 0 1.776.144 2.016.624.096.24.192 5.424.192 11.088 1.872-1.584 3.6-3.552 4.8-6.192.096-.288.24-.384.384-.384.336 0 .576.864.576 1.728v.288zm-9.84 14.064c0-.912 0-2.064-.048-3.312-2.88 1.92-5.088 3.552-5.088 6.48 0 .768.48 2.64 2.448 2.64 1.728 0 2.688-2.16 2.688-5.808zm22.704-14.16c0 3.888-3.456 7.056-7.728 7.056-1.296 0-2.544-.384-3.648-.96.144 3.696.288 7.536.336 10.464v2.4c0 2.16-.048 3.504-.144 3.744-.096.24-.816.816-1.584.816h-.048c-.48 0-1.824-.576-2.112-.912-.288-.624-.672-5.664-.72-10.176 0-1.2-.048-2.352-.048-3.456 0-10.032.672-15.504.72-15.552.144-.528 1.344-.576 1.344-.576s1.296 0 1.488.576c0 0 .048.336.096.912 1.248-.864 2.736-1.392 4.32-1.392 4.272 0 7.728 3.168 7.728 7.056zm-4.512 0c0-2.16-1.44-3.888-3.216-3.888-2.688 0-3.888 1.728-3.888 3.888 0 2.112 1.2 3.888 3.888 3.888 1.776 0 3.216-1.776 3.216-3.888zm21.504-13.824c0 .624-.432 1.296-.576 1.44-.24.096-3.408.192-4.416.192-1.92 0-4.368-.048-6.768-.144-.096 3.696-.384 7.968-.384 11.472v1.728c0 1.776.24 3.168 1.056 3.168 1.392 0 3.312-2.784 4.8-5.568.144-.288.24-.384.384-.384.336 0 .624.864.624 1.728 0 .528-.096 1.104-.288 1.488-.672 1.344-2.784 5.76-6.384 5.76-3.936 0-4.032-8.208-4.032-8.544-.144-2.928-.288-6.624-.288-10.992v-.048c-3.12-.144-5.52-.336-5.568-.384-.432-.144-.432-1.248-.432-1.248s0-1.104.384-1.248c.048 0 2.112-.288 5.664-.528.096-3.312.336-6.288.528-6.72.288-.336 1.632-.96 2.112-.96.768 0 1.536.576 1.632.816.144.336.24 2.592.24 6.144v.528c1.152-.048 2.352-.048 3.648-.048 1.776 0 6.912.24 7.392.48.24.24.672 1.44.672 1.872zm7.536 13.824c0 3.888-3.456 7.056-7.728 7.056-4.224 0-7.68-3.168-7.68-7.056s3.456-7.056 7.68-7.056c4.272 0 7.728 3.168 7.728 7.056zm-4.512 0c0-2.16-1.44-3.888-3.216-3.888-1.728 0-3.168 1.728-3.168 3.888 0 2.112 1.44 3.888 3.168 3.888 1.776 0 3.216-1.776 3.216-3.888zm10.992-13.824c0-1.68-1.2-3.072-2.736-3.12h-.144c-1.536 0-2.784 1.296-2.832 3.024v.144c0 1.728 1.152 3.072 2.736 3.12h.096c1.536 0 2.832-1.344 2.88-3.024v-.144zm5.664 13.728c0 .528-.096 1.056-.288 1.392-.672 1.344-2.784 5.76-6.432 5.76-3.312 0-4.608-3.456-4.608-8.016 0-1.104.144-5.088.384-5.472.288-.432.816-.624 1.92-.624 1.056 0 1.776.144 2.016.624.048.096.096.528.096 1.104 0 1.392-.144 3.888-.144 5.376 0 2.16.24 3.984 1.248 3.984 1.344 0 3.312-2.784 4.8-5.568.144-.288.24-.384.384-.384.336 0 .576.864.624 1.728v.096zm19.44-.096c0 .528-.096 1.104-.288 1.488-.672 1.344-2.784 5.76-6.384 5.76-1.296 0-2.16-.864-2.736-2.016-1.392 1.2-3.168 2.016-5.184 2.016-4.224 0-7.68-3.168-7.68-7.056s3.456-7.056 7.68-7.056c1.344 0 2.592.384 3.696.96-.048-1.92-.048-4.032-.048-6.384 0-4.464.288-9.552.528-10.176.288-.336 1.632-.96 2.112-.96.768 0 1.536.576 1.68.816.096.336.192 2.592.192 6.144 0 4.368-.24 10.8-.384 15.792 0 0-.048.624-.048 1.728 0 1.776.24 3.168 1.056 3.168 1.392 0 3.312-2.784 4.848-5.568.096-.288.192-.384.336-.384.336 0 .624.864.624 1.728zm-10.656.192c0-2.16-1.2-3.888-3.936-3.888-1.728 0-3.168 1.728-3.168 3.888 0 2.112 1.44 3.888 3.168 3.888 2.736 0 3.936-1.776 3.936-3.888z" fill="#FFF" fill-rule="evenodd"/>
</svg>