<?xml version="1.0" encoding="UTF-8"?>
<svg width="146px" height="50px" viewBox="0 0 146 50" version="1.1" xmlns="http://www.w3.org/2000/svg" xmlns:xlink="http://www.w3.org/1999/xlink">
    <!-- Generator: Sketch 44.1 (41455) - http://www.bohemiancoding.com/sketch -->
    <title>Outlined</title>
    <desc>Created with Sketch.</desc>
    <defs></defs>
    <g id="Symbols" stroke="none" stroke-width="1" fill="none" fill-rule="evenodd">
        <g id="UI-/-Masthead-Large" transform="translate(-40.000000, -24.000000)" fill="#FFFFFF">
            <path d="M114.266048,51.3608431 C114.46541,46.169376 114.813926,43.4020737 114.848,43.368 C114.992,42.84 116.192,42.792 116.192,42.792 C116.192,42.792 117.488,42.792 117.68,43.368 C117.68,43.368 117.728,43.704 117.776,44.28 C119.024,43.416 120.512,42.888 122.096,42.888 C126.368,42.888 129.824,46.056 129.824,49.944 C129.824,53.832 126.368,57 122.096,57 C120.8,57 119.552,56.616 118.448,56.04 C118.592,59.736 118.736,63.576 118.784,66.504 L118.784,68.904 C118.784,71.064 118.736,72.408 118.64,72.648 C118.544,72.888 117.824,73.464 117.056,73.464 L117.008,73.464 C116.528,73.464 115.184,72.888 114.896,72.552 C114.608,71.928 114.224,66.888 114.176,62.376 C114.176,61.176 114.128,60.024 114.128,58.92 C114.128,57.5149229 114.141182,56.1992978 114.163986,54.9754986 C113.206565,56.0886096 112.179282,57.0323905 111.152,57.864 C111.104,61.032 110.96,64.056 110.768,66.168 C110.288,71.832 106.64,73.56 104.336,73.56 C101.072,73.56 98.816,70.872 98.816,67.272 C98.816,62.472 102.704,60.36 106.976,57.624 L106.88,54.024 C105.776,55.56 104.192,57 102.08,57 C100.182239,57 98.8675807,55.8653126 98.0908752,54.0384152 C96.9955468,55.5367038 95.416307,57 93.344,57 C90.896,57 89.648,55.32 89.648,53.448 C89.648,52.008 90.752,49.704 91.328,48.408 C91.376,48.264 91.424,48.168 91.424,48.072 C91.424,47.832 91.184,47.688 90.896,47.688 C89.792,47.64 88.064,47.304 87.68,47.112 C87.296,48.504 85.04,53.448 83.984,53.448 C83.6079466,53.448 83.4137556,52.3204537 83.3697648,51.7434474 C80.8948219,53.4739849 71.190765,58.632 61.328,58.632 C50.432,58.632 40.928,53.88 40.928,43.8 C40.928,33.768 53.84,24.312 68.816,24.312 C74.96,24.312 81.2,26.232 81.2,30.456 C81.2,35.064 74.72,37.416 70.256,37.416 C68,37.416 66.224,37.128 66.224,36.504 C66.224,35.976 66.656,35.208 67.184,34.968 C67.568,34.872 75.2,35.064 75.2,30.984 C75.2,29.592 73.472,27.96 68.624,27.96 C59.504,27.96 47.984,33.864 47.984,43.512 C47.984,46.2 48.992,55.08 62.528,55.08 C72.752,55.08 83.696,48.456 83.984,48.456 C84.128,48.456 84.32,48.504 84.32,48.984 C84.32,49.2558615 84.3157347,49.5405188 84.2995755,49.8163573 C84.8556332,48.845231 85.5313644,47.5608799 85.952,46.2 C85.664,45.96 84.32,45.192 84.32,42.888 C84.32,41.976 84.944,40.44 86.144,40.44 C87.68,40.44 88.4,41.784 88.4,43.656 C89.168,44.184 91.808,44.328 93.008,44.328 C94.928,44.328 95.936,45.144 95.936,46.68 C95.936,48.168 93.728,52.152 93.728,53.352 C93.728,53.688 93.872,53.976 94.208,53.976 C95.1220534,53.976 96.2637731,52.7755781 97.3613472,51.1629884 C97.2747443,50.4746605 97.232,49.7446915 97.232,48.984 C97.232,47.88 97.424,43.896 97.616,43.512 C97.904,43.08 98.48,42.888 99.536,42.888 C100.64,42.888 101.552,43.032 101.792,43.512 C101.84,43.608 101.888,44.04 101.888,44.616 C101.888,46.008 101.744,48.504 101.744,49.992 C101.744,52.152 101.984,53.976 102.992,53.976 C104.048,53.976 105.488,52.248 106.784,50.184 L106.784,49.128 C106.784,45.528 106.832,43.896 107.072,43.512 C107.36,43.08 107.888,42.888 108.992,42.888 C110.048,42.888 110.768,43.032 111.008,43.512 C111.104,43.752 111.2,48.936 111.2,54.6 C112.297267,53.6715437 113.345059,52.6111573 114.266048,51.3608431 Z M107.12,64.104 C107.12,63.192 107.12,62.04 107.072,60.792 C104.192,62.712 101.984,64.344 101.984,67.272 C101.984,68.04 102.464,69.912 104.432,69.912 C106.16,69.912 107.12,67.752 107.12,64.104 Z M139.022588,50.9528615 C138.970808,50.6232743 138.944,50.2864296 138.944,49.944 C138.944,46.056 142.4,42.888 146.624,42.888 C150.896,42.888 154.352,46.056 154.352,49.944 C154.352,53.832 150.896,57 146.624,57 C143.803492,57 141.325411,55.5874885 139.990033,53.4912878 C138.893396,55.1580383 137.189028,57 134.864,57 C130.928,57 130.832,48.792 130.832,48.456 C130.688,45.528 130.544,41.832 130.544,37.464 L130.544,37.416 C127.424,37.272 125.024,37.08 124.976,37.032 C124.544,36.888 124.544,35.784 124.544,35.784 C124.544,35.784 124.544,34.68 124.928,34.536 C124.976,34.536 127.04,34.248 130.592,34.008 C130.688,30.696 130.928,27.72 131.12,27.288 C131.408,26.952 132.752,26.328 133.232,26.328 C134,26.328 134.768,26.904 134.864,27.144 C135.008,27.48 135.104,29.736 135.104,33.288 L135.104,33.816 C136.256,33.768 137.456,33.768 138.752,33.768 C140.528,33.768 145.664,34.008 146.144,34.248 C146.384,34.488 146.816,35.688 146.816,36.12 C146.816,36.744 146.384,37.416 146.24,37.56 C146,37.656 142.832,37.752 141.824,37.752 C139.904,37.752 137.456,37.704 135.056,37.608 C134.96,41.304 134.672,45.576 134.672,49.08 L134.672,50.808 C134.672,52.584 134.912,53.976 135.728,53.976 C136.681335,53.976 137.882326,52.6701835 139.022588,50.9528615 Z M125.312,49.944 C125.312,52.056 123.872,53.832 122.096,53.832 C119.408,53.832 118.208,52.056 118.208,49.944 C118.208,47.784 119.408,46.056 122.096,46.056 C123.872,46.056 125.312,47.784 125.312,49.944 Z M149.84,49.944 C149.84,47.784 148.4,46.056 146.624,46.056 C144.896,46.056 143.456,47.784 143.456,49.944 C143.456,52.056 144.896,53.832 146.624,53.832 C148.4,53.832 149.84,52.056 149.84,49.944 Z M164.827854,53.6701233 C163.724257,55.2870291 162.048036,57 159.776,57 C156.464,57 155.168,53.544 155.168,48.984 C155.168,47.88 155.312,43.896 155.552,43.512 C155.84,43.08 156.368,42.888 157.472,42.888 C158.528,42.888 159.248,43.032 159.488,43.512 C159.536,43.608 159.584,44.04 159.584,44.616 C159.584,46.008 159.44,48.504 159.44,49.992 C159.44,52.152 159.68,53.976 160.688,53.976 C161.559984,53.976 162.694634,52.8041076 163.790442,51.2206438 C163.707409,50.8064366 163.664,50.3797401 163.664,49.944 C163.664,46.056 167.12,42.888 171.344,42.888 C172.688,42.888 173.936,43.272 175.04,43.848 C174.992,41.928 174.992,39.816 174.992,37.464 C174.992,33 175.28,27.912 175.52,27.288 C175.808,26.952 177.152,26.328 177.632,26.328 C178.4,26.328 179.168,26.904 179.312,27.144 C179.408,27.48 179.504,29.736 179.504,33.288 C179.504,37.656 179.264,44.088 179.12,49.08 C179.12,49.08 179.072,49.704 179.072,50.808 C179.072,52.584 179.312,53.976 180.128,53.976 C181.52,53.976 183.44,51.192 184.976,48.408 C185.072,48.12 185.168,48.024 185.312,48.024 C185.648,48.024 185.936,48.888 185.936,49.752 C185.936,50.28 185.84,50.856 185.648,51.24 C184.976,52.584 182.864,57 179.264,57 C177.968,57 177.104,56.136 176.528,54.984 C175.136,56.184 173.36,57 171.344,57 C168.604468,57 166.187983,55.6674296 164.827854,53.6701233 Z M160.832,36.12 L160.832,36.264 C160.784,37.944 159.488,39.288 157.952,39.288 L157.856,39.288 C156.272,39.24 155.12,37.896 155.12,36.168 L155.12,36.024 C155.168,34.296 156.416,33 157.952,33 L158.096,33 C159.632,33.048 160.832,34.44 160.832,36.12 Z M175.28,49.944 C175.28,47.784 174.08,46.056 171.344,46.056 C169.616,46.056 168.176,47.784 168.176,49.944 C168.176,52.056 169.616,53.832 171.344,53.832 C174.08,53.832 175.28,52.056 175.28,49.944 Z" id="Outlined"></path>
        </g>
    </g>
</svg>